# xmcd
#
# Track frame offsets:
#	150
#	10541
#	22396
#	36868
#	50249
#	69423
#	81011
#	93690
#	104530
#	117343
#	131214
#	149142
#	170599
#	183639
#	196256
#
# Disc length: 2976 seconds
#
# Revision: 0
# Processed by: cddbd v1.5.2PL0 Copyright (c) Steve Scherf et al.
# Submitted via: EasyCDDAExtractor 16.0.1.1
#
DISCID=e50b9e0f
DTITLE=Van Morrison - Pay The Devil
DYEAR=2006
DGENRE=Country
TTITLE0=There Stands The Glass
TTITLE1=Half As Much
TTITLE2=Things Have Gone To Pieces
TTITLE3=Big Blue Diamonds
TTITLE4=Playhouse
TTITLE5=Your Cheatin' Heart
TTITLE6=Don't You Make Me High
TTITLE7=My Bucket's Got A Hole In It
TTITLE8=Back Street Affair
TTITLE9=Pay The Devil
TTITLE10=What Am I Living For
TTITLE11=This Has Got To Stop
TTITLE12=Once A Day
TTITLE13=More And More
TTITLE14=Till I Gain Control Again
EXTD=
EXTT0=
EXTT1=
EXTT2=
EXTT3=
EXTT4=
EXTT5=
EXTT6=
EXTT7=
EXTT8=
EXTT9=
EXTT10=
EXTT11=
EXTT12=
EXTT13=
EXTT14=
PLAYORDER=
